<mxfile host="65bd71144e">
    <diagram id="3I3giQXlBfIKpEBD-l2_" name="第 1 页">
        <mxGraphModel dx="3355" dy="3254" grid="1" gridSize="10" guides="1" tooltips="1" connect="1" arrows="1" fold="1" page="1" pageScale="1" pageWidth="1169" pageHeight="1654" math="0" shadow="0">
            <root>
                <mxCell id="0"/>
                <mxCell id="1" parent="0"/>
                <mxCell id="253" value="DLC" style="rounded=0;whiteSpace=wrap;html=1;strokeColor=#CCCCCC;strokeWidth=2;fontStyle=1;fontColor=#CCCCCC;fillColor=#F2F9FF;" parent="1" vertex="1">
                    <mxGeometry x="500" y="740" width="80" height="40" as="geometry"/>
                </mxCell>
                <mxCell id="241" value="ID" style="rounded=0;whiteSpace=wrap;html=1;strokeColor=#CCCCCC;strokeWidth=2;fontStyle=1;fontColor=#CCCCCC;fillColor=#F2F9FF;" parent="1" vertex="1">
                    <mxGeometry x="-200" y="740" width="220" height="40" as="geometry"/>
                </mxCell>
                <mxCell id="242" value="" style="rounded=0;whiteSpace=wrap;html=1;strokeColor=#CCCCCC;strokeWidth=2;fillColor=#F2F9FF;" parent="1" vertex="1">
                    <mxGeometry x="-220" y="740" width="20" height="40" as="geometry"/>
                </mxCell>
                <mxCell id="243" value="" style="rounded=0;whiteSpace=wrap;html=1;strokeColor=#CCCCCC;strokeWidth=2;fillColor=#F2F9FF;" parent="1" vertex="1">
                    <mxGeometry x="20" y="740" width="20" height="40" as="geometry"/>
                </mxCell>
                <mxCell id="246" value="" style="rounded=0;whiteSpace=wrap;html=1;strokeColor=#CCCCCC;strokeWidth=2;fillColor=#F2F9FF;" parent="1" vertex="1">
                    <mxGeometry x="40" y="740" width="20" height="40" as="geometry"/>
                </mxCell>
                <mxCell id="247" value="ID" style="rounded=0;whiteSpace=wrap;html=1;strokeColor=#CCCCCC;strokeWidth=2;fontStyle=1;fontColor=#CCCCCC;fillColor=#F2F9FF;" parent="1" vertex="1">
                    <mxGeometry x="60" y="740" width="380" height="40" as="geometry"/>
                </mxCell>
                <mxCell id="248" value="" style="rounded=0;whiteSpace=wrap;html=1;strokeColor=#CCCCCC;strokeWidth=2;fillColor=#F2F9FF;" parent="1" vertex="1">
                    <mxGeometry x="440" y="740" width="20" height="40" as="geometry"/>
                </mxCell>
                <mxCell id="249" value="" style="rounded=0;whiteSpace=wrap;html=1;strokeColor=#CCCCCC;strokeWidth=2;fillColor=#F2F9FF;" parent="1" vertex="1">
                    <mxGeometry x="460" y="740" width="20" height="40" as="geometry"/>
                </mxCell>
                <mxCell id="250" value="" style="rounded=0;whiteSpace=wrap;html=1;strokeColor=#CCCCCC;strokeWidth=2;fillColor=#F2F9FF;" parent="1" vertex="1">
                    <mxGeometry x="480" y="740" width="20" height="40" as="geometry"/>
                </mxCell>
                <mxCell id="172" value="" style="shape=table;startSize=0;container=1;collapsible=0;childLayout=tableLayout;fontSize=14;strokeColor=light-dark(#CCCCCC,#EDEDED);fontStyle=2" parent="1" vertex="1">
                    <mxGeometry x="620" y="680" width="160" height="20" as="geometry"/>
                </mxCell>
                <mxCell id="177" value="" style="shape=tableRow;horizontal=0;startSize=0;swimlaneHead=0;swimlaneBody=0;strokeColor=inherit;top=0;left=0;bottom=0;right=0;collapsible=0;dropTarget=0;fillColor=none;points=[[0,0.5],[1,0.5]];portConstraint=eastwest;fontSize=16;" parent="172" vertex="1">
                    <mxGeometry width="160" height="20" as="geometry"/>
                </mxCell>
                <mxCell id="189" value="7" style="shape=partialRectangle;html=1;whiteSpace=wrap;connectable=0;strokeColor=inherit;overflow=hidden;fillColor=none;top=0;left=0;bottom=0;right=0;pointerEvents=1;fontSize=12;fontColor=light-dark(#b0b0b0, #272727);fontStyle=1" parent="177" vertex="1">
                    <mxGeometry width="20" height="20" as="geometry">
                        <mxRectangle width="20" height="20" as="alternateBounds"/>
                    </mxGeometry>
                </mxCell>
                <mxCell id="188" value="6" style="shape=partialRectangle;html=1;whiteSpace=wrap;connectable=0;strokeColor=inherit;overflow=hidden;fillColor=none;top=0;left=0;bottom=0;right=0;pointerEvents=1;fontSize=12;fontColor=light-dark(#b0b0b0, #272727);fontStyle=1" parent="177" vertex="1">
                    <mxGeometry x="20" width="20" height="20" as="geometry">
                        <mxRectangle width="20" height="20" as="alternateBounds"/>
                    </mxGeometry>
                </mxCell>
                <mxCell id="187" value="5" style="shape=partialRectangle;html=1;whiteSpace=wrap;connectable=0;strokeColor=inherit;overflow=hidden;fillColor=none;top=0;left=0;bottom=0;right=0;pointerEvents=1;fontSize=12;fontColor=light-dark(#b0b0b0, #272727);fontStyle=1" parent="177" vertex="1">
                    <mxGeometry x="40" width="20" height="20" as="geometry">
                        <mxRectangle width="20" height="20" as="alternateBounds"/>
                    </mxGeometry>
                </mxCell>
                <mxCell id="186" value="4" style="shape=partialRectangle;html=1;whiteSpace=wrap;connectable=0;strokeColor=inherit;overflow=hidden;fillColor=none;top=0;left=0;bottom=0;right=0;pointerEvents=1;fontSize=12;fontColor=light-dark(#b0b0b0, #272727);fontStyle=1" parent="177" vertex="1">
                    <mxGeometry x="60" width="21" height="20" as="geometry">
                        <mxRectangle width="21" height="20" as="alternateBounds"/>
                    </mxGeometry>
                </mxCell>
                <mxCell id="185" value="3" style="shape=partialRectangle;html=1;whiteSpace=wrap;connectable=0;strokeColor=inherit;overflow=hidden;fillColor=none;top=0;left=0;bottom=0;right=0;pointerEvents=1;fontSize=12;fontColor=light-dark(#b0b0b0, #272727);fontStyle=1" parent="177" vertex="1">
                    <mxGeometry x="81" width="19" height="20" as="geometry">
                        <mxRectangle width="19" height="20" as="alternateBounds"/>
                    </mxGeometry>
                </mxCell>
                <mxCell id="178" value="2" style="shape=partialRectangle;html=1;whiteSpace=wrap;connectable=0;strokeColor=inherit;overflow=hidden;fillColor=none;top=0;left=0;bottom=0;right=0;pointerEvents=1;fontSize=12;fontColor=light-dark(#b0b0b0, #272727);fontStyle=1" parent="177" vertex="1">
                    <mxGeometry x="100" width="20" height="20" as="geometry">
                        <mxRectangle width="20" height="20" as="alternateBounds"/>
                    </mxGeometry>
                </mxCell>
                <mxCell id="179" value="1" style="shape=partialRectangle;html=1;whiteSpace=wrap;connectable=0;strokeColor=inherit;overflow=hidden;fillColor=none;top=0;left=0;bottom=0;right=0;pointerEvents=1;fontSize=12;fontColor=light-dark(#b0b0b0, #272727);fontStyle=1" parent="177" vertex="1">
                    <mxGeometry x="120" width="20" height="20" as="geometry">
                        <mxRectangle width="20" height="20" as="alternateBounds"/>
                    </mxGeometry>
                </mxCell>
                <mxCell id="180" value="0" style="shape=partialRectangle;html=1;whiteSpace=wrap;connectable=0;strokeColor=inherit;overflow=hidden;fillColor=none;top=0;left=0;bottom=0;right=0;pointerEvents=1;fontSize=12;fontColor=light-dark(#b0b0b0, #272727);fontStyle=1" parent="177" vertex="1">
                    <mxGeometry x="140" width="20" height="20" as="geometry">
                        <mxRectangle width="20" height="20" as="alternateBounds"/>
                    </mxGeometry>
                </mxCell>
                <mxCell id="2" value="BU_ 1" style="rounded=0;whiteSpace=wrap;html=1;strokeColor=default;strokeWidth=2;fontStyle=1" parent="1" vertex="1">
                    <mxGeometry x="660" y="190" width="120" height="60" as="geometry"/>
                </mxCell>
                <mxCell id="3" value="BU_ 2" style="rounded=0;whiteSpace=wrap;html=1;strokeColor=default;strokeWidth=2;fontStyle=1" parent="1" vertex="1">
                    <mxGeometry x="840" y="190" width="120" height="60" as="geometry"/>
                </mxCell>
                <mxCell id="42" value="信号" style="shape=table;startSize=30;container=1;collapsible=0;childLayout=tableLayout;strokeColor=default;fontSize=16;strokeWidth=2;fontStyle=1;fillColor=#FFE6CC;" parent="1" vertex="1">
                    <mxGeometry x="690" y="480" width="960" height="60" as="geometry"/>
                </mxCell>
                <mxCell id="43" value="" style="shape=tableRow;horizontal=0;startSize=0;swimlaneHead=0;swimlaneBody=0;strokeColor=inherit;top=0;left=0;bottom=0;right=0;collapsible=0;dropTarget=0;fillColor=none;points=[[0,0.5],[1,0.5]];portConstraint=eastwest;fontSize=16;" parent="42" vertex="1">
                    <mxGeometry y="30" width="960" height="30" as="geometry"/>
                </mxCell>
                <mxCell id="44" value="信号名" style="shape=partialRectangle;html=1;whiteSpace=wrap;connectable=0;strokeColor=default;overflow=hidden;fillColor=#FFF9F2;top=0;left=0;bottom=0;right=0;pointerEvents=1;fontSize=12;strokeWidth=2;fillStyle=solid;opacity=20;" parent="43" vertex="1">
                    <mxGeometry width="106" height="30" as="geometry">
                        <mxRectangle width="106" height="30" as="alternateBounds"/>
                    </mxGeometry>
                </mxCell>
                <mxCell id="45" value="起始位" style="shape=partialRectangle;html=1;whiteSpace=wrap;connectable=0;strokeColor=default;overflow=hidden;fillColor=#FFF9F2;top=0;left=0;bottom=0;right=0;pointerEvents=1;fontSize=12;strokeWidth=2;fillStyle=solid;opacity=20;" parent="43" vertex="1">
                    <mxGeometry x="106" width="109" height="30" as="geometry">
                        <mxRectangle width="109" height="30" as="alternateBounds"/>
                    </mxGeometry>
                </mxCell>
                <mxCell id="46" value="位长" style="shape=partialRectangle;html=1;whiteSpace=wrap;connectable=0;strokeColor=default;overflow=hidden;fillColor=#FFF9F2;top=0;left=0;bottom=0;right=0;pointerEvents=1;fontSize=12;strokeWidth=2;fillStyle=solid;opacity=20;" parent="43" vertex="1">
                    <mxGeometry x="215" width="108" height="30" as="geometry">
                        <mxRectangle width="108" height="30" as="alternateBounds"/>
                    </mxGeometry>
                </mxCell>
                <mxCell id="47" value="字节顺序" style="shape=partialRectangle;html=1;whiteSpace=wrap;connectable=0;strokeColor=default;overflow=hidden;fillColor=#FFF9F2;top=0;left=0;bottom=0;right=0;pointerEvents=1;fontSize=12;strokeWidth=2;fillStyle=solid;opacity=20;" parent="43" vertex="1">
                    <mxGeometry x="323" width="106" height="30" as="geometry">
                        <mxRectangle width="106" height="30" as="alternateBounds"/>
                    </mxGeometry>
                </mxCell>
                <mxCell id="48" value="符号类型" style="shape=partialRectangle;html=1;whiteSpace=wrap;connectable=0;strokeColor=default;overflow=hidden;fillColor=#FFF9F2;top=0;left=0;bottom=0;right=0;pointerEvents=1;fontSize=12;strokeWidth=2;fillStyle=solid;opacity=20;" parent="43" vertex="1">
                    <mxGeometry x="429" width="105" height="30" as="geometry">
                        <mxRectangle width="105" height="30" as="alternateBounds"/>
                    </mxGeometry>
                </mxCell>
                <mxCell id="49" value="分辨率&amp;amp;偏置" style="shape=partialRectangle;html=1;whiteSpace=wrap;connectable=0;strokeColor=default;overflow=hidden;fillColor=#FFF9F2;top=0;left=0;bottom=0;right=0;pointerEvents=1;fontSize=12;strokeWidth=2;fillStyle=solid;opacity=20;" parent="43" vertex="1">
                    <mxGeometry x="534" width="107" height="30" as="geometry">
                        <mxRectangle width="107" height="30" as="alternateBounds"/>
                    </mxGeometry>
                </mxCell>
                <mxCell id="51" value="物理最小值|最大值" style="shape=partialRectangle;html=1;whiteSpace=wrap;connectable=0;strokeColor=default;overflow=hidden;fillColor=#FFF9F2;top=0;left=0;bottom=0;right=0;pointerEvents=1;fontSize=12;strokeWidth=2;fillStyle=solid;opacity=20;" parent="43" vertex="1">
                    <mxGeometry x="641" width="106" height="30" as="geometry">
                        <mxRectangle width="106" height="30" as="alternateBounds"/>
                    </mxGeometry>
                </mxCell>
                <mxCell id="52" value="单位" style="shape=partialRectangle;html=1;whiteSpace=wrap;connectable=0;strokeColor=default;overflow=hidden;fillColor=#FFF9F2;top=0;left=0;bottom=0;right=0;pointerEvents=1;fontSize=12;strokeWidth=2;fillStyle=solid;opacity=20;" parent="43" vertex="1">
                    <mxGeometry x="747" width="107" height="30" as="geometry">
                        <mxRectangle width="107" height="30" as="alternateBounds"/>
                    </mxGeometry>
                </mxCell>
                <mxCell id="53" value="接收节点" style="shape=partialRectangle;html=1;whiteSpace=wrap;connectable=0;strokeColor=default;overflow=hidden;fillColor=#FFF9F2;top=0;left=0;bottom=0;right=0;pointerEvents=1;fontSize=12;strokeWidth=2;fillStyle=solid;opacity=20;" parent="43" vertex="1">
                    <mxGeometry x="854" width="106" height="30" as="geometry">
                        <mxRectangle width="106" height="30" as="alternateBounds"/>
                    </mxGeometry>
                </mxCell>
                <mxCell id="54" value="" style="group;strokeColor=default;strokeWidth=2;fillColor=#FBFFE0;" parent="1" vertex="1" connectable="0">
                    <mxGeometry x="200" y="340" width="600" height="100" as="geometry"/>
                </mxCell>
                <mxCell id="18" value="报文" style="shape=table;startSize=30;container=1;collapsible=0;childLayout=tableLayout;strokeColor=default;fontSize=16;strokeWidth=2;fontStyle=1;fillColor=#FFFFCC;" parent="54" vertex="1">
                    <mxGeometry width="600" height="70" as="geometry"/>
                </mxCell>
                <mxCell id="19" value="" style="shape=tableRow;horizontal=0;startSize=0;swimlaneHead=0;swimlaneBody=0;strokeColor=inherit;top=0;left=0;bottom=0;right=0;collapsible=0;dropTarget=0;fillColor=none;points=[[0,0.5],[1,0.5]];portConstraint=eastwest;fontSize=16;" parent="18" vertex="1">
                    <mxGeometry y="30" width="600" height="40" as="geometry"/>
                </mxCell>
                <mxCell id="20" value="报文ID" style="shape=partialRectangle;html=1;whiteSpace=wrap;connectable=0;strokeColor=inherit;overflow=hidden;fillColor=none;top=0;left=0;bottom=0;right=0;pointerEvents=1;fontSize=16;" parent="19" vertex="1">
                    <mxGeometry width="149" height="40" as="geometry">
                        <mxRectangle width="149" height="40" as="alternateBounds"/>
                    </mxGeometry>
                </mxCell>
                <mxCell id="21" value="报文名" style="shape=partialRectangle;html=1;whiteSpace=wrap;connectable=0;strokeColor=inherit;overflow=hidden;fillColor=none;top=0;left=0;bottom=0;right=0;pointerEvents=1;fontSize=16;" parent="19" vertex="1">
                    <mxGeometry x="149" width="152" height="40" as="geometry">
                        <mxRectangle width="152" height="40" as="alternateBounds"/>
                    </mxGeometry>
                </mxCell>
                <mxCell id="22" value="数据长度" style="shape=partialRectangle;html=1;whiteSpace=wrap;connectable=0;strokeColor=inherit;overflow=hidden;fillColor=none;top=0;left=0;bottom=0;right=0;pointerEvents=1;fontSize=16;" parent="19" vertex="1">
                    <mxGeometry x="301" width="150" height="40" as="geometry">
                        <mxRectangle width="150" height="40" as="alternateBounds"/>
                    </mxGeometry>
                </mxCell>
                <mxCell id="31" value="发送节点" style="shape=partialRectangle;html=1;whiteSpace=wrap;connectable=0;strokeColor=inherit;overflow=hidden;fillColor=none;top=0;left=0;bottom=0;right=0;pointerEvents=1;fontSize=16;" parent="19" vertex="1">
                    <mxGeometry x="451" width="149" height="40" as="geometry">
                        <mxRectangle width="149" height="40" as="alternateBounds"/>
                    </mxGeometry>
                </mxCell>
                <mxCell id="39" value="信号1" style="rounded=0;whiteSpace=wrap;html=1;strokeWidth=2;fillColor=#FBFFE0;" parent="54" vertex="1">
                    <mxGeometry y="70" width="220" height="30" as="geometry"/>
                </mxCell>
                <mxCell id="40" value="信号2" style="rounded=0;whiteSpace=wrap;html=1;strokeWidth=2;fillColor=#FBFFE0;" parent="54" vertex="1">
                    <mxGeometry x="220" y="70" width="200" height="30" as="geometry"/>
                </mxCell>
                <mxCell id="41" value="..." style="rounded=0;whiteSpace=wrap;html=1;strokeWidth=2;fillColor=#FBFFE0;" parent="54" vertex="1">
                    <mxGeometry x="420" y="70" width="180" height="30" as="geometry"/>
                </mxCell>
                <mxCell id="55" value="" style="curved=1;endArrow=classic;html=1;entryX=0.495;entryY=-0.003;entryDx=0;entryDy=0;entryPerimeter=0;exitX=0.5;exitY=1;exitDx=0;exitDy=0;strokeWidth=2;" parent="1" source="39" target="42" edge="1">
                    <mxGeometry width="50" height="50" relative="1" as="geometry">
                        <mxPoint x="-30" y="430" as="sourcePoint"/>
                        <mxPoint x="20" y="380" as="targetPoint"/>
                        <Array as="points">
                            <mxPoint x="300" y="460"/>
                            <mxPoint x="1160" y="450"/>
                        </Array>
                    </mxGeometry>
                </mxCell>
                <mxCell id="68" value="&lt;b&gt;值描述&lt;/b&gt;" style="swimlane;fontStyle=0;childLayout=stackLayout;horizontal=1;startSize=30;horizontalStack=0;resizeParent=1;resizeParentMax=0;resizeLast=0;collapsible=1;marginBottom=0;whiteSpace=wrap;html=1;strokeColor=default;strokeWidth=2;fillColor=#FFE7E2;" parent="1" vertex="1">
                    <mxGeometry x="1480" y="690" width="140" height="120" as="geometry"/>
                </mxCell>
                <mxCell id="69" value="值1 描述1" style="text;strokeColor=none;fillColor=none;align=left;verticalAlign=middle;spacingLeft=4;spacingRight=4;overflow=hidden;points=[[0,0.5],[1,0.5]];portConstraint=eastwest;rotatable=0;whiteSpace=wrap;html=1;" parent="68" vertex="1">
                    <mxGeometry y="30" width="140" height="30" as="geometry"/>
                </mxCell>
                <mxCell id="70" value="值2 描述2" style="text;strokeColor=none;fillColor=none;align=left;verticalAlign=middle;spacingLeft=4;spacingRight=4;overflow=hidden;points=[[0,0.5],[1,0.5]];portConstraint=eastwest;rotatable=0;whiteSpace=wrap;html=1;" parent="68" vertex="1">
                    <mxGeometry y="60" width="140" height="30" as="geometry"/>
                </mxCell>
                <mxCell id="71" value="..." style="text;strokeColor=none;fillColor=none;align=left;verticalAlign=middle;spacingLeft=4;spacingRight=4;overflow=hidden;points=[[0,0.5],[1,0.5]];portConstraint=eastwest;rotatable=0;whiteSpace=wrap;html=1;" parent="68" vertex="1">
                    <mxGeometry y="90" width="140" height="30" as="geometry"/>
                </mxCell>
                <mxCell id="75" value="" style="rounded=0;whiteSpace=wrap;html=1;strokeColor=default;strokeWidth=2;fillColor=#EAF2FF;" parent="1" vertex="1">
                    <mxGeometry x="200" y="720" width="20" height="40" as="geometry"/>
                </mxCell>
                <mxCell id="76" value="ID" style="rounded=0;whiteSpace=wrap;html=1;strokeColor=default;strokeWidth=2;fontStyle=1;fillColor=#EAF2FF;" parent="1" vertex="1">
                    <mxGeometry x="220" y="720" width="220" height="40" as="geometry"/>
                </mxCell>
                <mxCell id="77" value="" style="rounded=0;whiteSpace=wrap;html=1;strokeColor=default;strokeWidth=2;fillColor=#EAF2FF;" parent="1" vertex="1">
                    <mxGeometry x="440" y="720" width="20" height="40" as="geometry"/>
                </mxCell>
                <mxCell id="80" value="DLC" style="rounded=0;whiteSpace=wrap;html=1;strokeColor=default;strokeWidth=2;fontStyle=1;fillColor=#EAF2FF;" parent="1" vertex="1">
                    <mxGeometry x="500" y="720" width="80" height="40" as="geometry"/>
                </mxCell>
                <mxCell id="82" value="" style="rounded=0;whiteSpace=wrap;html=1;strokeColor=default;strokeWidth=2;fillColor=#EAF2FF;" parent="1" vertex="1">
                    <mxGeometry x="800" y="720" width="300" height="40" as="geometry"/>
                </mxCell>
                <mxCell id="84" value="" style="curved=1;endArrow=classic;html=1;exitX=0.124;exitY=1.004;exitDx=0;exitDy=0;exitPerimeter=0;strokeWidth=2;" parent="1" source="19" target="76" edge="1">
                    <mxGeometry width="50" height="50" relative="1" as="geometry">
                        <mxPoint x="310" y="590" as="sourcePoint"/>
                        <mxPoint x="360" y="540" as="targetPoint"/>
                        <Array as="points">
                            <mxPoint x="280" y="560"/>
                            <mxPoint x="300" y="630"/>
                        </Array>
                    </mxGeometry>
                </mxCell>
                <mxCell id="85" value="" style="curved=1;endArrow=classic;html=1;exitX=0.124;exitY=1.004;exitDx=0;exitDy=0;exitPerimeter=0;entryX=0.5;entryY=0;entryDx=0;entryDy=0;strokeWidth=2;" parent="1" target="80" edge="1">
                    <mxGeometry width="50" height="50" relative="1" as="geometry">
                        <mxPoint x="570" y="410" as="sourcePoint"/>
                        <mxPoint x="653" y="720" as="targetPoint"/>
                        <Array as="points">
                            <mxPoint x="596" y="630"/>
                        </Array>
                    </mxGeometry>
                </mxCell>
                <mxCell id="86" value="" style="shape=table;startSize=0;container=1;collapsible=0;childLayout=tableLayout;fontSize=16;strokeColor=default;strokeWidth=2;" parent="1" vertex="1">
                    <mxGeometry x="620" y="720" width="160" height="160" as="geometry"/>
                </mxCell>
                <mxCell id="115" style="shape=tableRow;horizontal=0;startSize=0;swimlaneHead=0;swimlaneBody=0;strokeColor=inherit;top=0;left=0;bottom=0;right=0;collapsible=0;dropTarget=0;fillColor=none;points=[[0,0.5],[1,0.5]];portConstraint=eastwest;fontSize=16;" parent="86" vertex="1">
                    <mxGeometry width="160" height="20" as="geometry"/>
                </mxCell>
                <mxCell id="116" style="shape=partialRectangle;html=1;whiteSpace=wrap;connectable=0;strokeColor=inherit;overflow=hidden;fillColor=none;top=0;left=0;bottom=0;right=0;pointerEvents=1;fontSize=16;" parent="115" vertex="1">
                    <mxGeometry width="20" height="20" as="geometry">
                        <mxRectangle width="20" height="20" as="alternateBounds"/>
                    </mxGeometry>
                </mxCell>
                <mxCell id="117" style="shape=partialRectangle;html=1;whiteSpace=wrap;connectable=0;strokeColor=inherit;overflow=hidden;fillColor=none;top=0;left=0;bottom=0;right=0;pointerEvents=1;fontSize=16;" parent="115" vertex="1">
                    <mxGeometry x="20" width="19" height="20" as="geometry">
                        <mxRectangle width="19" height="20" as="alternateBounds"/>
                    </mxGeometry>
                </mxCell>
                <mxCell id="118" style="shape=partialRectangle;html=1;whiteSpace=wrap;connectable=0;strokeColor=inherit;overflow=hidden;fillColor=none;top=0;left=0;bottom=0;right=0;pointerEvents=1;fontSize=16;" parent="115" vertex="1">
                    <mxGeometry x="39" width="21" height="20" as="geometry">
                        <mxRectangle width="21" height="20" as="alternateBounds"/>
                    </mxGeometry>
                </mxCell>
                <mxCell id="119" style="shape=partialRectangle;html=1;whiteSpace=wrap;connectable=0;strokeColor=inherit;overflow=hidden;fillColor=none;top=0;left=0;bottom=0;right=0;pointerEvents=1;fontSize=16;" parent="115" vertex="1">
                    <mxGeometry x="60" width="21" height="20" as="geometry">
                        <mxRectangle width="21" height="20" as="alternateBounds"/>
                    </mxGeometry>
                </mxCell>
                <mxCell id="127" style="shape=partialRectangle;html=1;whiteSpace=wrap;connectable=0;strokeColor=inherit;overflow=hidden;fillColor=none;top=0;left=0;bottom=0;right=0;pointerEvents=1;fontSize=16;" parent="115" vertex="1">
                    <mxGeometry x="81" width="20" height="20" as="geometry">
                        <mxRectangle width="20" height="20" as="alternateBounds"/>
                    </mxGeometry>
                </mxCell>
                <mxCell id="135" style="shape=partialRectangle;html=1;whiteSpace=wrap;connectable=0;strokeColor=inherit;overflow=hidden;fillColor=none;top=0;left=0;bottom=0;right=0;pointerEvents=1;fontSize=16;" parent="115" vertex="1">
                    <mxGeometry x="101" width="20" height="20" as="geometry">
                        <mxRectangle width="20" height="20" as="alternateBounds"/>
                    </mxGeometry>
                </mxCell>
                <mxCell id="143" style="shape=partialRectangle;html=1;whiteSpace=wrap;connectable=0;strokeColor=inherit;overflow=hidden;fillColor=none;top=0;left=0;bottom=0;right=0;pointerEvents=1;fontSize=16;" parent="115" vertex="1">
                    <mxGeometry x="121" width="20" height="20" as="geometry">
                        <mxRectangle width="20" height="20" as="alternateBounds"/>
                    </mxGeometry>
                </mxCell>
                <mxCell id="151" style="shape=partialRectangle;html=1;whiteSpace=wrap;connectable=0;strokeColor=inherit;overflow=hidden;fillColor=none;top=0;left=0;bottom=0;right=0;pointerEvents=1;fontSize=16;" parent="115" vertex="1">
                    <mxGeometry x="141" width="19" height="20" as="geometry">
                        <mxRectangle width="19" height="20" as="alternateBounds"/>
                    </mxGeometry>
                </mxCell>
                <mxCell id="111" style="shape=tableRow;horizontal=0;startSize=0;swimlaneHead=0;swimlaneBody=0;strokeColor=inherit;top=0;left=0;bottom=0;right=0;collapsible=0;dropTarget=0;fillColor=none;points=[[0,0.5],[1,0.5]];portConstraint=eastwest;fontSize=16;" parent="86" vertex="1">
                    <mxGeometry y="20" width="160" height="20" as="geometry"/>
                </mxCell>
                <mxCell id="112" style="shape=partialRectangle;html=1;whiteSpace=wrap;connectable=0;strokeColor=inherit;overflow=hidden;fillColor=none;top=0;left=0;bottom=0;right=0;pointerEvents=1;fontSize=16;" parent="111" vertex="1">
                    <mxGeometry width="20" height="20" as="geometry">
                        <mxRectangle width="20" height="20" as="alternateBounds"/>
                    </mxGeometry>
                </mxCell>
                <mxCell id="113" style="shape=partialRectangle;html=1;whiteSpace=wrap;connectable=0;strokeColor=inherit;overflow=hidden;fillColor=none;top=0;left=0;bottom=0;right=0;pointerEvents=1;fontSize=16;" parent="111" vertex="1">
                    <mxGeometry x="20" width="19" height="20" as="geometry">
                        <mxRectangle width="19" height="20" as="alternateBounds"/>
                    </mxGeometry>
                </mxCell>
                <mxCell id="114" style="shape=partialRectangle;html=1;whiteSpace=wrap;connectable=0;strokeColor=inherit;overflow=hidden;fillColor=none;top=0;left=0;bottom=0;right=0;pointerEvents=1;fontSize=16;" parent="111" vertex="1">
                    <mxGeometry x="39" width="21" height="20" as="geometry">
                        <mxRectangle width="21" height="20" as="alternateBounds"/>
                    </mxGeometry>
                </mxCell>
                <mxCell id="120" style="shape=partialRectangle;html=1;whiteSpace=wrap;connectable=0;strokeColor=inherit;overflow=hidden;fillColor=none;top=0;left=0;bottom=0;right=0;pointerEvents=1;fontSize=16;" parent="111" vertex="1">
                    <mxGeometry x="60" width="21" height="20" as="geometry">
                        <mxRectangle width="21" height="20" as="alternateBounds"/>
                    </mxGeometry>
                </mxCell>
                <mxCell id="128" style="shape=partialRectangle;html=1;whiteSpace=wrap;connectable=0;strokeColor=inherit;overflow=hidden;fillColor=none;top=0;left=0;bottom=0;right=0;pointerEvents=1;fontSize=16;" parent="111" vertex="1">
                    <mxGeometry x="81" width="20" height="20" as="geometry">
                        <mxRectangle width="20" height="20" as="alternateBounds"/>
                    </mxGeometry>
                </mxCell>
                <mxCell id="136" style="shape=partialRectangle;html=1;whiteSpace=wrap;connectable=0;strokeColor=inherit;overflow=hidden;fillColor=none;top=0;left=0;bottom=0;right=0;pointerEvents=1;fontSize=16;" parent="111" vertex="1">
                    <mxGeometry x="101" width="20" height="20" as="geometry">
                        <mxRectangle width="20" height="20" as="alternateBounds"/>
                    </mxGeometry>
                </mxCell>
                <mxCell id="144" style="shape=partialRectangle;html=1;whiteSpace=wrap;connectable=0;strokeColor=inherit;overflow=hidden;fillColor=none;top=0;left=0;bottom=0;right=0;pointerEvents=1;fontSize=16;" parent="111" vertex="1">
                    <mxGeometry x="121" width="20" height="20" as="geometry">
                        <mxRectangle width="20" height="20" as="alternateBounds"/>
                    </mxGeometry>
                </mxCell>
                <mxCell id="152" style="shape=partialRectangle;html=1;whiteSpace=wrap;connectable=0;strokeColor=inherit;overflow=hidden;fillColor=none;top=0;left=0;bottom=0;right=0;pointerEvents=1;fontSize=16;" parent="111" vertex="1">
                    <mxGeometry x="141" width="19" height="20" as="geometry">
                        <mxRectangle width="19" height="20" as="alternateBounds"/>
                    </mxGeometry>
                </mxCell>
                <mxCell id="107" style="shape=tableRow;horizontal=0;startSize=0;swimlaneHead=0;swimlaneBody=0;strokeColor=inherit;top=0;left=0;bottom=0;right=0;collapsible=0;dropTarget=0;fillColor=none;points=[[0,0.5],[1,0.5]];portConstraint=eastwest;fontSize=16;" parent="86" vertex="1">
                    <mxGeometry y="40" width="160" height="20" as="geometry"/>
                </mxCell>
                <mxCell id="108" style="shape=partialRectangle;html=1;whiteSpace=wrap;connectable=0;strokeColor=inherit;overflow=hidden;fillColor=none;top=0;left=0;bottom=0;right=0;pointerEvents=1;fontSize=16;" parent="107" vertex="1">
                    <mxGeometry width="20" height="20" as="geometry">
                        <mxRectangle width="20" height="20" as="alternateBounds"/>
                    </mxGeometry>
                </mxCell>
                <mxCell id="109" style="shape=partialRectangle;html=1;whiteSpace=wrap;connectable=0;strokeColor=inherit;overflow=hidden;fillColor=none;top=0;left=0;bottom=0;right=0;pointerEvents=1;fontSize=16;" parent="107" vertex="1">
                    <mxGeometry x="20" width="19" height="20" as="geometry">
                        <mxRectangle width="19" height="20" as="alternateBounds"/>
                    </mxGeometry>
                </mxCell>
                <mxCell id="110" style="shape=partialRectangle;html=1;whiteSpace=wrap;connectable=0;strokeColor=inherit;overflow=hidden;fillColor=none;top=0;left=0;bottom=0;right=0;pointerEvents=1;fontSize=16;" parent="107" vertex="1">
                    <mxGeometry x="39" width="21" height="20" as="geometry">
                        <mxRectangle width="21" height="20" as="alternateBounds"/>
                    </mxGeometry>
                </mxCell>
                <mxCell id="121" style="shape=partialRectangle;html=1;whiteSpace=wrap;connectable=0;strokeColor=inherit;overflow=hidden;fillColor=none;top=0;left=0;bottom=0;right=0;pointerEvents=1;fontSize=16;" parent="107" vertex="1">
                    <mxGeometry x="60" width="21" height="20" as="geometry">
                        <mxRectangle width="21" height="20" as="alternateBounds"/>
                    </mxGeometry>
                </mxCell>
                <mxCell id="129" style="shape=partialRectangle;html=1;whiteSpace=wrap;connectable=0;strokeColor=#6c8ebf;overflow=hidden;fillColor=#007FFF;top=0;left=0;bottom=0;right=0;pointerEvents=1;fontSize=16;sketch=1;curveFitting=1;jiggle=2;" parent="107" vertex="1">
                    <mxGeometry x="81" width="20" height="20" as="geometry">
                        <mxRectangle width="20" height="20" as="alternateBounds"/>
                    </mxGeometry>
                </mxCell>
                <mxCell id="137" style="shape=partialRectangle;html=1;whiteSpace=wrap;connectable=0;strokeColor=#6c8ebf;overflow=hidden;fillColor=#007FFF;top=0;left=0;bottom=0;right=0;pointerEvents=1;fontSize=16;sketch=1;curveFitting=1;jiggle=2;" parent="107" vertex="1">
                    <mxGeometry x="101" width="20" height="20" as="geometry">
                        <mxRectangle width="20" height="20" as="alternateBounds"/>
                    </mxGeometry>
                </mxCell>
                <mxCell id="145" style="shape=partialRectangle;html=1;whiteSpace=wrap;connectable=0;strokeColor=#6c8ebf;overflow=hidden;fillColor=#007FFF;top=0;left=0;bottom=0;right=0;pointerEvents=1;fontSize=16;sketch=1;curveFitting=1;jiggle=2;" parent="107" vertex="1">
                    <mxGeometry x="121" width="20" height="20" as="geometry">
                        <mxRectangle width="20" height="20" as="alternateBounds"/>
                    </mxGeometry>
                </mxCell>
                <mxCell id="153" style="shape=partialRectangle;html=1;whiteSpace=wrap;connectable=0;strokeColor=#6c8ebf;overflow=hidden;fillColor=#007FFF;top=0;left=0;bottom=0;right=0;pointerEvents=1;fontSize=16;sketch=1;curveFitting=1;jiggle=2;" parent="107" vertex="1">
                    <mxGeometry x="141" width="19" height="20" as="geometry">
                        <mxRectangle width="19" height="20" as="alternateBounds"/>
                    </mxGeometry>
                </mxCell>
                <mxCell id="103" style="shape=tableRow;horizontal=0;startSize=0;swimlaneHead=0;swimlaneBody=0;strokeColor=inherit;top=0;left=0;bottom=0;right=0;collapsible=0;dropTarget=0;fillColor=none;points=[[0,0.5],[1,0.5]];portConstraint=eastwest;fontSize=16;" parent="86" vertex="1">
                    <mxGeometry y="60" width="160" height="20" as="geometry"/>
                </mxCell>
                <mxCell id="104" style="shape=partialRectangle;html=1;whiteSpace=wrap;connectable=0;strokeColor=#b85450;overflow=hidden;fillColor=#FFDE0A;top=0;left=0;bottom=0;right=0;pointerEvents=1;fontSize=16;sketch=1;curveFitting=1;jiggle=2;" parent="103" vertex="1">
                    <mxGeometry width="20" height="20" as="geometry">
                        <mxRectangle width="20" height="20" as="alternateBounds"/>
                    </mxGeometry>
                </mxCell>
                <mxCell id="105" style="shape=partialRectangle;html=1;whiteSpace=wrap;connectable=0;strokeColor=#b85450;overflow=hidden;fillColor=#FFDE0A;top=0;left=0;bottom=0;right=0;pointerEvents=1;fontSize=16;sketch=1;curveFitting=1;jiggle=2;" parent="103" vertex="1">
                    <mxGeometry x="20" width="19" height="20" as="geometry">
                        <mxRectangle width="19" height="20" as="alternateBounds"/>
                    </mxGeometry>
                </mxCell>
                <mxCell id="106" style="shape=partialRectangle;html=1;whiteSpace=wrap;connectable=0;strokeColor=#b85450;overflow=hidden;fillColor=#FFDE0A;top=0;left=0;bottom=0;right=0;pointerEvents=1;fontSize=16;sketch=1;curveFitting=1;jiggle=2;" parent="103" vertex="1">
                    <mxGeometry x="39" width="21" height="20" as="geometry">
                        <mxRectangle width="21" height="20" as="alternateBounds"/>
                    </mxGeometry>
                </mxCell>
                <mxCell id="122" style="shape=partialRectangle;html=1;whiteSpace=wrap;connectable=0;strokeColor=#b85450;overflow=hidden;fillColor=#FFDE0A;top=0;left=0;bottom=0;right=0;pointerEvents=1;fontSize=16;sketch=1;curveFitting=1;jiggle=2;" parent="103" vertex="1">
                    <mxGeometry x="60" width="21" height="20" as="geometry">
                        <mxRectangle width="21" height="20" as="alternateBounds"/>
                    </mxGeometry>
                </mxCell>
                <mxCell id="130" style="shape=partialRectangle;html=1;whiteSpace=wrap;connectable=0;strokeColor=#b85450;overflow=hidden;fillColor=#FFDE0A;top=0;left=0;bottom=0;right=0;pointerEvents=1;fontSize=16;sketch=1;curveFitting=1;jiggle=2;" parent="103" vertex="1">
                    <mxGeometry x="81" width="20" height="20" as="geometry">
                        <mxRectangle width="20" height="20" as="alternateBounds"/>
                    </mxGeometry>
                </mxCell>
                <mxCell id="138" style="shape=partialRectangle;html=1;whiteSpace=wrap;connectable=0;strokeColor=#b85450;overflow=hidden;fillColor=#FFDE0A;top=0;left=0;bottom=0;right=0;pointerEvents=1;fontSize=16;sketch=1;curveFitting=1;jiggle=2;" parent="103" vertex="1">
                    <mxGeometry x="101" width="20" height="20" as="geometry">
                        <mxRectangle width="20" height="20" as="alternateBounds"/>
                    </mxGeometry>
                </mxCell>
                <mxCell id="146" style="shape=partialRectangle;html=1;whiteSpace=wrap;connectable=0;strokeColor=#b85450;overflow=hidden;fillColor=none;top=0;left=0;bottom=0;right=0;pointerEvents=1;fontSize=16;sketch=1;curveFitting=1;jiggle=2;" parent="103" vertex="1">
                    <mxGeometry x="121" width="20" height="20" as="geometry">
                        <mxRectangle width="20" height="20" as="alternateBounds"/>
                    </mxGeometry>
                </mxCell>
                <mxCell id="154" style="shape=partialRectangle;html=1;whiteSpace=wrap;connectable=0;strokeColor=#b85450;overflow=hidden;fillColor=none;top=0;left=0;bottom=0;right=0;pointerEvents=1;fontSize=16;sketch=1;curveFitting=1;jiggle=2;" parent="103" vertex="1">
                    <mxGeometry x="141" width="19" height="20" as="geometry">
                        <mxRectangle width="19" height="20" as="alternateBounds"/>
                    </mxGeometry>
                </mxCell>
                <mxCell id="99" style="shape=tableRow;horizontal=0;startSize=0;swimlaneHead=0;swimlaneBody=0;strokeColor=inherit;top=0;left=0;bottom=0;right=0;collapsible=0;dropTarget=0;fillColor=none;points=[[0,0.5],[1,0.5]];portConstraint=eastwest;fontSize=16;" parent="86" vertex="1">
                    <mxGeometry y="80" width="160" height="20" as="geometry"/>
                </mxCell>
                <mxCell id="100" style="shape=partialRectangle;html=1;whiteSpace=wrap;connectable=0;overflow=hidden;top=0;left=0;bottom=0;right=0;pointerEvents=1;fontSize=16;fillColor=none;" parent="99" vertex="1">
                    <mxGeometry width="20" height="20" as="geometry">
                        <mxRectangle width="20" height="20" as="alternateBounds"/>
                    </mxGeometry>
                </mxCell>
                <mxCell id="101" style="shape=partialRectangle;html=1;whiteSpace=wrap;connectable=0;overflow=hidden;top=0;left=0;bottom=0;right=0;pointerEvents=1;fontSize=16;fillColor=none;" parent="99" vertex="1">
                    <mxGeometry x="20" width="19" height="20" as="geometry">
                        <mxRectangle width="19" height="20" as="alternateBounds"/>
                    </mxGeometry>
                </mxCell>
                <mxCell id="102" style="shape=partialRectangle;html=1;whiteSpace=wrap;connectable=0;overflow=hidden;top=0;left=0;bottom=0;right=0;pointerEvents=1;fontSize=16;fillColor=none;" parent="99" vertex="1">
                    <mxGeometry x="39" width="21" height="20" as="geometry">
                        <mxRectangle width="21" height="20" as="alternateBounds"/>
                    </mxGeometry>
                </mxCell>
                <mxCell id="123" style="shape=partialRectangle;html=1;whiteSpace=wrap;connectable=0;overflow=hidden;top=0;left=0;bottom=0;right=0;pointerEvents=1;fontSize=16;fillColor=none;" parent="99" vertex="1">
                    <mxGeometry x="60" width="21" height="20" as="geometry">
                        <mxRectangle width="21" height="20" as="alternateBounds"/>
                    </mxGeometry>
                </mxCell>
                <mxCell id="131" style="shape=partialRectangle;html=1;whiteSpace=wrap;connectable=0;strokeColor=#82b366;overflow=hidden;fillColor=#66CC00;top=0;left=0;bottom=0;right=0;pointerEvents=1;fontSize=16;sketch=1;curveFitting=1;jiggle=2;" parent="99" vertex="1">
                    <mxGeometry x="81" width="20" height="20" as="geometry">
                        <mxRectangle width="20" height="20" as="alternateBounds"/>
                    </mxGeometry>
                </mxCell>
                <mxCell id="139" style="shape=partialRectangle;html=1;whiteSpace=wrap;connectable=0;strokeColor=#82b366;overflow=hidden;fillColor=#66CC00;top=0;left=0;bottom=0;right=0;pointerEvents=1;fontSize=16;sketch=1;curveFitting=1;jiggle=2;" parent="99" vertex="1">
                    <mxGeometry x="101" width="20" height="20" as="geometry">
                        <mxRectangle width="20" height="20" as="alternateBounds"/>
                    </mxGeometry>
                </mxCell>
                <mxCell id="147" style="shape=partialRectangle;html=1;whiteSpace=wrap;connectable=0;strokeColor=#82b366;overflow=hidden;fillColor=#66CC00;top=0;left=0;bottom=0;right=0;pointerEvents=1;fontSize=16;sketch=1;curveFitting=1;jiggle=2;" parent="99" vertex="1">
                    <mxGeometry x="121" width="20" height="20" as="geometry">
                        <mxRectangle width="20" height="20" as="alternateBounds"/>
                    </mxGeometry>
                </mxCell>
                <mxCell id="155" style="shape=partialRectangle;html=1;whiteSpace=wrap;connectable=0;strokeColor=#82b366;overflow=hidden;fillColor=#66CC00;top=0;left=0;bottom=0;right=0;pointerEvents=1;fontSize=16;sketch=1;curveFitting=1;jiggle=2;" parent="99" vertex="1">
                    <mxGeometry x="141" width="19" height="20" as="geometry">
                        <mxRectangle width="19" height="20" as="alternateBounds"/>
                    </mxGeometry>
                </mxCell>
                <mxCell id="87" value="" style="shape=tableRow;horizontal=0;startSize=0;swimlaneHead=0;swimlaneBody=0;strokeColor=inherit;top=0;left=0;bottom=0;right=0;collapsible=0;dropTarget=0;fillColor=none;points=[[0,0.5],[1,0.5]];portConstraint=eastwest;fontSize=16;" parent="86" vertex="1">
                    <mxGeometry y="100" width="160" height="20" as="geometry"/>
                </mxCell>
                <mxCell id="88" value="" style="shape=partialRectangle;html=1;whiteSpace=wrap;connectable=0;strokeColor=inherit;overflow=hidden;fillColor=none;top=0;left=0;bottom=0;right=0;pointerEvents=1;fontSize=16;" parent="87" vertex="1">
                    <mxGeometry width="20" height="20" as="geometry">
                        <mxRectangle width="20" height="20" as="alternateBounds"/>
                    </mxGeometry>
                </mxCell>
                <mxCell id="89" value="" style="shape=partialRectangle;html=1;whiteSpace=wrap;connectable=0;strokeColor=inherit;overflow=hidden;fillColor=none;top=0;left=0;bottom=0;right=0;pointerEvents=1;fontSize=16;" parent="87" vertex="1">
                    <mxGeometry x="20" width="19" height="20" as="geometry">
                        <mxRectangle width="19" height="20" as="alternateBounds"/>
                    </mxGeometry>
                </mxCell>
                <mxCell id="90" value="" style="shape=partialRectangle;html=1;whiteSpace=wrap;connectable=0;strokeColor=inherit;overflow=hidden;fillColor=none;top=0;left=0;bottom=0;right=0;pointerEvents=1;fontSize=16;" parent="87" vertex="1">
                    <mxGeometry x="39" width="21" height="20" as="geometry">
                        <mxRectangle width="21" height="20" as="alternateBounds"/>
                    </mxGeometry>
                </mxCell>
                <mxCell id="124" style="shape=partialRectangle;html=1;whiteSpace=wrap;connectable=0;strokeColor=inherit;overflow=hidden;fillColor=none;top=0;left=0;bottom=0;right=0;pointerEvents=1;fontSize=16;" parent="87" vertex="1">
                    <mxGeometry x="60" width="21" height="20" as="geometry">
                        <mxRectangle width="21" height="20" as="alternateBounds"/>
                    </mxGeometry>
                </mxCell>
                <mxCell id="132" style="shape=partialRectangle;html=1;whiteSpace=wrap;connectable=0;strokeColor=inherit;overflow=hidden;fillColor=none;top=0;left=0;bottom=0;right=0;pointerEvents=1;fontSize=16;" parent="87" vertex="1">
                    <mxGeometry x="81" width="20" height="20" as="geometry">
                        <mxRectangle width="20" height="20" as="alternateBounds"/>
                    </mxGeometry>
                </mxCell>
                <mxCell id="140" style="shape=partialRectangle;html=1;whiteSpace=wrap;connectable=0;strokeColor=inherit;overflow=hidden;fillColor=none;top=0;left=0;bottom=0;right=0;pointerEvents=1;fontSize=16;" parent="87" vertex="1">
                    <mxGeometry x="101" width="20" height="20" as="geometry">
                        <mxRectangle width="20" height="20" as="alternateBounds"/>
                    </mxGeometry>
                </mxCell>
                <mxCell id="148" style="shape=partialRectangle;html=1;whiteSpace=wrap;connectable=0;strokeColor=inherit;overflow=hidden;fillColor=none;top=0;left=0;bottom=0;right=0;pointerEvents=1;fontSize=16;" parent="87" vertex="1">
                    <mxGeometry x="121" width="20" height="20" as="geometry">
                        <mxRectangle width="20" height="20" as="alternateBounds"/>
                    </mxGeometry>
                </mxCell>
                <mxCell id="156" style="shape=partialRectangle;html=1;whiteSpace=wrap;connectable=0;strokeColor=inherit;overflow=hidden;fillColor=none;top=0;left=0;bottom=0;right=0;pointerEvents=1;fontSize=16;" parent="87" vertex="1">
                    <mxGeometry x="141" width="19" height="20" as="geometry">
                        <mxRectangle width="19" height="20" as="alternateBounds"/>
                    </mxGeometry>
                </mxCell>
                <mxCell id="91" value="" style="shape=tableRow;horizontal=0;startSize=0;swimlaneHead=0;swimlaneBody=0;strokeColor=inherit;top=0;left=0;bottom=0;right=0;collapsible=0;dropTarget=0;fillColor=none;points=[[0,0.5],[1,0.5]];portConstraint=eastwest;fontSize=16;" parent="86" vertex="1">
                    <mxGeometry y="120" width="160" height="20" as="geometry"/>
                </mxCell>
                <mxCell id="92" value="" style="shape=partialRectangle;html=1;whiteSpace=wrap;connectable=0;strokeColor=inherit;overflow=hidden;fillColor=none;top=0;left=0;bottom=0;right=0;pointerEvents=1;fontSize=16;" parent="91" vertex="1">
                    <mxGeometry width="20" height="20" as="geometry">
                        <mxRectangle width="20" height="20" as="alternateBounds"/>
                    </mxGeometry>
                </mxCell>
                <mxCell id="93" value="" style="shape=partialRectangle;html=1;whiteSpace=wrap;connectable=0;strokeColor=inherit;overflow=hidden;fillColor=none;top=0;left=0;bottom=0;right=0;pointerEvents=1;fontSize=16;" parent="91" vertex="1">
                    <mxGeometry x="20" width="19" height="20" as="geometry">
                        <mxRectangle width="19" height="20" as="alternateBounds"/>
                    </mxGeometry>
                </mxCell>
                <mxCell id="94" value="" style="shape=partialRectangle;html=1;whiteSpace=wrap;connectable=0;strokeColor=inherit;overflow=hidden;fillColor=none;top=0;left=0;bottom=0;right=0;pointerEvents=1;fontSize=16;" parent="91" vertex="1">
                    <mxGeometry x="39" width="21" height="20" as="geometry">
                        <mxRectangle width="21" height="20" as="alternateBounds"/>
                    </mxGeometry>
                </mxCell>
                <mxCell id="125" style="shape=partialRectangle;html=1;whiteSpace=wrap;connectable=0;strokeColor=inherit;overflow=hidden;fillColor=none;top=0;left=0;bottom=0;right=0;pointerEvents=1;fontSize=16;" parent="91" vertex="1">
                    <mxGeometry x="60" width="21" height="20" as="geometry">
                        <mxRectangle width="21" height="20" as="alternateBounds"/>
                    </mxGeometry>
                </mxCell>
                <mxCell id="133" style="shape=partialRectangle;html=1;whiteSpace=wrap;connectable=0;strokeColor=inherit;overflow=hidden;fillColor=none;top=0;left=0;bottom=0;right=0;pointerEvents=1;fontSize=16;" parent="91" vertex="1">
                    <mxGeometry x="81" width="20" height="20" as="geometry">
                        <mxRectangle width="20" height="20" as="alternateBounds"/>
                    </mxGeometry>
                </mxCell>
                <mxCell id="141" style="shape=partialRectangle;html=1;whiteSpace=wrap;connectable=0;strokeColor=inherit;overflow=hidden;fillColor=none;top=0;left=0;bottom=0;right=0;pointerEvents=1;fontSize=16;" parent="91" vertex="1">
                    <mxGeometry x="101" width="20" height="20" as="geometry">
                        <mxRectangle width="20" height="20" as="alternateBounds"/>
                    </mxGeometry>
                </mxCell>
                <mxCell id="149" style="shape=partialRectangle;html=1;whiteSpace=wrap;connectable=0;strokeColor=inherit;overflow=hidden;fillColor=none;top=0;left=0;bottom=0;right=0;pointerEvents=1;fontSize=16;" parent="91" vertex="1">
                    <mxGeometry x="121" width="20" height="20" as="geometry">
                        <mxRectangle width="20" height="20" as="alternateBounds"/>
                    </mxGeometry>
                </mxCell>
                <mxCell id="157" style="shape=partialRectangle;html=1;whiteSpace=wrap;connectable=0;strokeColor=inherit;overflow=hidden;fillColor=none;top=0;left=0;bottom=0;right=0;pointerEvents=1;fontSize=16;" parent="91" vertex="1">
                    <mxGeometry x="141" width="19" height="20" as="geometry">
                        <mxRectangle width="19" height="20" as="alternateBounds"/>
                    </mxGeometry>
                </mxCell>
                <mxCell id="95" value="" style="shape=tableRow;horizontal=0;startSize=0;swimlaneHead=0;swimlaneBody=0;strokeColor=inherit;top=0;left=0;bottom=0;right=0;collapsible=0;dropTarget=0;fillColor=none;points=[[0,0.5],[1,0.5]];portConstraint=eastwest;fontSize=16;" parent="86" vertex="1">
                    <mxGeometry y="140" width="160" height="20" as="geometry"/>
                </mxCell>
                <mxCell id="96" value="" style="shape=partialRectangle;html=1;whiteSpace=wrap;connectable=0;strokeColor=inherit;overflow=hidden;fillColor=none;top=0;left=0;bottom=0;right=0;pointerEvents=1;fontSize=16;" parent="95" vertex="1">
                    <mxGeometry width="20" height="20" as="geometry">
                        <mxRectangle width="20" height="20" as="alternateBounds"/>
                    </mxGeometry>
                </mxCell>
                <mxCell id="97" value="" style="shape=partialRectangle;html=1;whiteSpace=wrap;connectable=0;strokeColor=inherit;overflow=hidden;fillColor=none;top=0;left=0;bottom=0;right=0;pointerEvents=1;fontSize=16;" parent="95" vertex="1">
                    <mxGeometry x="20" width="19" height="20" as="geometry">
                        <mxRectangle width="19" height="20" as="alternateBounds"/>
                    </mxGeometry>
                </mxCell>
                <mxCell id="98" value="" style="shape=partialRectangle;html=1;whiteSpace=wrap;connectable=0;strokeColor=inherit;overflow=hidden;fillColor=none;top=0;left=0;bottom=0;right=0;pointerEvents=1;fontSize=16;" parent="95" vertex="1">
                    <mxGeometry x="39" width="21" height="20" as="geometry">
                        <mxRectangle width="21" height="20" as="alternateBounds"/>
                    </mxGeometry>
                </mxCell>
                <mxCell id="126" style="shape=partialRectangle;html=1;whiteSpace=wrap;connectable=0;strokeColor=inherit;overflow=hidden;fillColor=none;top=0;left=0;bottom=0;right=0;pointerEvents=1;fontSize=16;" parent="95" vertex="1">
                    <mxGeometry x="60" width="21" height="20" as="geometry">
                        <mxRectangle width="21" height="20" as="alternateBounds"/>
                    </mxGeometry>
                </mxCell>
                <mxCell id="134" style="shape=partialRectangle;html=1;whiteSpace=wrap;connectable=0;strokeColor=inherit;overflow=hidden;fillColor=none;top=0;left=0;bottom=0;right=0;pointerEvents=1;fontSize=16;" parent="95" vertex="1">
                    <mxGeometry x="81" width="20" height="20" as="geometry">
                        <mxRectangle width="20" height="20" as="alternateBounds"/>
                    </mxGeometry>
                </mxCell>
                <mxCell id="142" style="shape=partialRectangle;html=1;whiteSpace=wrap;connectable=0;strokeColor=inherit;overflow=hidden;fillColor=none;top=0;left=0;bottom=0;right=0;pointerEvents=1;fontSize=16;" parent="95" vertex="1">
                    <mxGeometry x="101" width="20" height="20" as="geometry">
                        <mxRectangle width="20" height="20" as="alternateBounds"/>
                    </mxGeometry>
                </mxCell>
                <mxCell id="150" style="shape=partialRectangle;html=1;whiteSpace=wrap;connectable=0;strokeColor=inherit;overflow=hidden;fillColor=none;top=0;left=0;bottom=0;right=0;pointerEvents=1;fontSize=16;" parent="95" vertex="1">
                    <mxGeometry x="121" width="20" height="20" as="geometry">
                        <mxRectangle width="20" height="20" as="alternateBounds"/>
                    </mxGeometry>
                </mxCell>
                <mxCell id="158" style="shape=partialRectangle;html=1;whiteSpace=wrap;connectable=0;strokeColor=inherit;overflow=hidden;fillColor=none;top=0;left=0;bottom=0;right=0;pointerEvents=1;fontSize=16;" parent="95" vertex="1">
                    <mxGeometry x="141" width="19" height="20" as="geometry">
                        <mxRectangle width="19" height="20" as="alternateBounds"/>
                    </mxGeometry>
                </mxCell>
                <mxCell id="168" value="" style="curved=1;endArrow=classic;html=1;exitX=0.169;exitY=0.981;exitDx=0;exitDy=0;exitPerimeter=0;strokeWidth=2;" parent="1" source="43" edge="1">
                    <mxGeometry width="50" height="50" relative="1" as="geometry">
                        <mxPoint x="865.67" y="550" as="sourcePoint"/>
                        <mxPoint x="729.9988888888889" y="791.38" as="targetPoint"/>
                        <Array as="points">
                            <mxPoint x="860" y="700"/>
                        </Array>
                    </mxGeometry>
                </mxCell>
                <mxCell id="169" value="" style="endArrow=none;dashed=1;html=1;dashPattern=1 3;strokeWidth=2;entryX=0.336;entryY=0.963;entryDx=0;entryDy=0;entryPerimeter=0;exitX=0.748;exitY=0.997;exitDx=0;exitDy=0;exitPerimeter=0;" parent="1" source="103" target="43" edge="1">
                    <mxGeometry width="50" height="50" relative="1" as="geometry">
                        <mxPoint x="950" y="630" as="sourcePoint"/>
                        <mxPoint x="1000" y="580" as="targetPoint"/>
                    </mxGeometry>
                </mxCell>
                <mxCell id="170" value="" style="endArrow=none;dashed=1;html=1;dashPattern=1 3;strokeWidth=2;entryX=0.336;entryY=0.963;entryDx=0;entryDy=0;entryPerimeter=0;exitX=0.508;exitY=-0.003;exitDx=0;exitDy=0;exitPerimeter=0;" parent="1" source="107" edge="1">
                    <mxGeometry width="50" height="50" relative="1" as="geometry">
                        <mxPoint x="630" y="801" as="sourcePoint"/>
                        <mxPoint x="903" y="540" as="targetPoint"/>
                    </mxGeometry>
                </mxCell>
                <mxCell id="171" value="" style="curved=1;endArrow=classic;html=1;exitX=1;exitY=0.25;exitDx=0;exitDy=0;entryX=0.5;entryY=0;entryDx=0;entryDy=0;strokeWidth=2;" parent="1" source="42" target="68" edge="1">
                    <mxGeometry width="50" height="50" relative="1" as="geometry">
                        <mxPoint x="1730" y="470" as="sourcePoint"/>
                        <mxPoint x="1780" y="420" as="targetPoint"/>
                        <Array as="points">
                            <mxPoint x="1710" y="560"/>
                            <mxPoint x="1660" y="680"/>
                        </Array>
                    </mxGeometry>
                </mxCell>
                <mxCell id="190" value="" style="shape=table;startSize=0;container=1;collapsible=0;childLayout=tableLayout;fontSize=14;strokeColor=light-dark(#CCCCCC,#EDEDED);fontStyle=2" parent="1" vertex="1">
                    <mxGeometry x="585" y="720" width="20" height="160" as="geometry"/>
                </mxCell>
                <mxCell id="200" style="shape=tableRow;horizontal=0;startSize=0;swimlaneHead=0;swimlaneBody=0;strokeColor=inherit;top=0;left=0;bottom=0;right=0;collapsible=0;dropTarget=0;fillColor=none;points=[[0,0.5],[1,0.5]];portConstraint=eastwest;fontSize=16;" parent="190" vertex="1">
                    <mxGeometry width="20" height="20" as="geometry"/>
                </mxCell>
                <mxCell id="201" value="0" style="shape=partialRectangle;html=1;whiteSpace=wrap;connectable=0;strokeColor=inherit;overflow=hidden;fillColor=none;top=0;left=0;bottom=0;right=0;pointerEvents=1;fontSize=12;fontColor=light-dark(#b0b0b0, #ededed);fontStyle=1" parent="200" vertex="1">
                    <mxGeometry width="20" height="20" as="geometry">
                        <mxRectangle width="20" height="20" as="alternateBounds"/>
                    </mxGeometry>
                </mxCell>
                <mxCell id="218" style="shape=tableRow;horizontal=0;startSize=0;swimlaneHead=0;swimlaneBody=0;strokeColor=inherit;top=0;left=0;bottom=0;right=0;collapsible=0;dropTarget=0;fillColor=none;points=[[0,0.5],[1,0.5]];portConstraint=eastwest;fontSize=16;" parent="190" vertex="1">
                    <mxGeometry y="20" width="20" height="20" as="geometry"/>
                </mxCell>
                <mxCell id="219" value="1" style="shape=partialRectangle;html=1;whiteSpace=wrap;connectable=0;strokeColor=inherit;overflow=hidden;fillColor=none;top=0;left=0;bottom=0;right=0;pointerEvents=1;fontSize=12;fontColor=light-dark(#b0b0b0, #ededed);fontStyle=1" parent="218" vertex="1">
                    <mxGeometry width="20" height="20" as="geometry">
                        <mxRectangle width="20" height="20" as="alternateBounds"/>
                    </mxGeometry>
                </mxCell>
                <mxCell id="220" style="shape=tableRow;horizontal=0;startSize=0;swimlaneHead=0;swimlaneBody=0;strokeColor=inherit;top=0;left=0;bottom=0;right=0;collapsible=0;dropTarget=0;fillColor=none;points=[[0,0.5],[1,0.5]];portConstraint=eastwest;fontSize=16;" parent="190" vertex="1">
                    <mxGeometry y="40" width="20" height="20" as="geometry"/>
                </mxCell>
                <mxCell id="221" value="2" style="shape=partialRectangle;html=1;whiteSpace=wrap;connectable=0;strokeColor=inherit;overflow=hidden;fillColor=none;top=0;left=0;bottom=0;right=0;pointerEvents=1;fontSize=12;fontColor=light-dark(#b0b0b0, #ededed);fontStyle=1" parent="220" vertex="1">
                    <mxGeometry width="20" height="20" as="geometry">
                        <mxRectangle width="20" height="20" as="alternateBounds"/>
                    </mxGeometry>
                </mxCell>
                <mxCell id="222" style="shape=tableRow;horizontal=0;startSize=0;swimlaneHead=0;swimlaneBody=0;strokeColor=inherit;top=0;left=0;bottom=0;right=0;collapsible=0;dropTarget=0;fillColor=none;points=[[0,0.5],[1,0.5]];portConstraint=eastwest;fontSize=16;" parent="190" vertex="1">
                    <mxGeometry y="60" width="20" height="20" as="geometry"/>
                </mxCell>
                <mxCell id="223" value="3" style="shape=partialRectangle;html=1;whiteSpace=wrap;connectable=0;strokeColor=inherit;overflow=hidden;fillColor=none;top=0;left=0;bottom=0;right=0;pointerEvents=1;fontSize=12;fontColor=light-dark(#b0b0b0, #ededed);fontStyle=1" parent="222" vertex="1">
                    <mxGeometry width="20" height="20" as="geometry">
                        <mxRectangle width="20" height="20" as="alternateBounds"/>
                    </mxGeometry>
                </mxCell>
                <mxCell id="224" style="shape=tableRow;horizontal=0;startSize=0;swimlaneHead=0;swimlaneBody=0;strokeColor=inherit;top=0;left=0;bottom=0;right=0;collapsible=0;dropTarget=0;fillColor=none;points=[[0,0.5],[1,0.5]];portConstraint=eastwest;fontSize=16;" parent="190" vertex="1">
                    <mxGeometry y="80" width="20" height="20" as="geometry"/>
                </mxCell>
                <mxCell id="225" value="4" style="shape=partialRectangle;html=1;whiteSpace=wrap;connectable=0;strokeColor=inherit;overflow=hidden;fillColor=none;top=0;left=0;bottom=0;right=0;pointerEvents=1;fontSize=12;fontColor=light-dark(#b0b0b0, #ededed);fontStyle=1" parent="224" vertex="1">
                    <mxGeometry width="20" height="20" as="geometry">
                        <mxRectangle width="20" height="20" as="alternateBounds"/>
                    </mxGeometry>
                </mxCell>
                <mxCell id="226" style="shape=tableRow;horizontal=0;startSize=0;swimlaneHead=0;swimlaneBody=0;strokeColor=inherit;top=0;left=0;bottom=0;right=0;collapsible=0;dropTarget=0;fillColor=none;points=[[0,0.5],[1,0.5]];portConstraint=eastwest;fontSize=16;" parent="190" vertex="1">
                    <mxGeometry y="100" width="20" height="20" as="geometry"/>
                </mxCell>
                <mxCell id="227" value="5" style="shape=partialRectangle;html=1;whiteSpace=wrap;connectable=0;strokeColor=inherit;overflow=hidden;fillColor=none;top=0;left=0;bottom=0;right=0;pointerEvents=1;fontSize=12;fontColor=light-dark(#b0b0b0, #ededed);fontStyle=1" parent="226" vertex="1">
                    <mxGeometry width="20" height="20" as="geometry">
                        <mxRectangle width="20" height="20" as="alternateBounds"/>
                    </mxGeometry>
                </mxCell>
                <mxCell id="228" style="shape=tableRow;horizontal=0;startSize=0;swimlaneHead=0;swimlaneBody=0;strokeColor=inherit;top=0;left=0;bottom=0;right=0;collapsible=0;dropTarget=0;fillColor=none;points=[[0,0.5],[1,0.5]];portConstraint=eastwest;fontSize=16;" parent="190" vertex="1">
                    <mxGeometry y="120" width="20" height="20" as="geometry"/>
                </mxCell>
                <mxCell id="229" value="6" style="shape=partialRectangle;html=1;whiteSpace=wrap;connectable=0;strokeColor=inherit;overflow=hidden;fillColor=none;top=0;left=0;bottom=0;right=0;pointerEvents=1;fontSize=12;fontColor=light-dark(#b0b0b0, #ededed);fontStyle=1" parent="228" vertex="1">
                    <mxGeometry width="20" height="20" as="geometry">
                        <mxRectangle width="20" height="20" as="alternateBounds"/>
                    </mxGeometry>
                </mxCell>
                <mxCell id="230" style="shape=tableRow;horizontal=0;startSize=0;swimlaneHead=0;swimlaneBody=0;strokeColor=inherit;top=0;left=0;bottom=0;right=0;collapsible=0;dropTarget=0;fillColor=none;points=[[0,0.5],[1,0.5]];portConstraint=eastwest;fontSize=16;" parent="190" vertex="1">
                    <mxGeometry y="140" width="20" height="20" as="geometry"/>
                </mxCell>
                <mxCell id="231" value="7" style="shape=partialRectangle;html=1;whiteSpace=wrap;connectable=0;strokeColor=inherit;overflow=hidden;fillColor=none;top=0;left=0;bottom=0;right=0;pointerEvents=1;fontSize=12;fontColor=light-dark(#b0b0b0, #ededed);fontStyle=1" parent="230" vertex="1">
                    <mxGeometry width="20" height="20" as="geometry">
                        <mxRectangle width="20" height="20" as="alternateBounds"/>
                    </mxGeometry>
                </mxCell>
                <mxCell id="233" value="" style="curved=1;endArrow=classic;html=1;strokeWidth=2;" parent="1" edge="1">
                    <mxGeometry width="50" height="50" relative="1" as="geometry">
                        <mxPoint x="1100" y="780" as="sourcePoint"/>
                        <mxPoint x="930" y="790" as="targetPoint"/>
                        <Array as="points">
                            <mxPoint x="1040" y="800"/>
                            <mxPoint x="980" y="800"/>
                        </Array>
                    </mxGeometry>
                </mxCell>
                <mxCell id="234" value="1" style="text;html=1;align=center;verticalAlign=middle;whiteSpace=wrap;rounded=0;" parent="1" vertex="1">
                    <mxGeometry x="870" y="810" width="60" height="30" as="geometry"/>
                </mxCell>
                <mxCell id="235" value="0" style="text;html=1;align=center;verticalAlign=middle;whiteSpace=wrap;rounded=0;" parent="1" vertex="1">
                    <mxGeometry x="870" y="770" width="60" height="30" as="geometry"/>
                </mxCell>
                <mxCell id="236" value="" style="endArrow=classic;html=1;entryX=1.008;entryY=0.606;entryDx=0;entryDy=0;entryPerimeter=0;exitX=0;exitY=0.25;exitDx=0;exitDy=0;strokeWidth=2;" parent="1" source="234" target="99" edge="1">
                    <mxGeometry width="50" height="50" relative="1" as="geometry">
                        <mxPoint x="820" y="860" as="sourcePoint"/>
                        <mxPoint x="870" y="810" as="targetPoint"/>
                    </mxGeometry>
                </mxCell>
                <mxCell id="237" value="" style="endArrow=classic;html=1;entryX=1;entryY=0.5;entryDx=0;entryDy=0;exitX=0;exitY=0.25;exitDx=0;exitDy=0;strokeWidth=2;" parent="1" source="235" target="107" edge="1">
                    <mxGeometry width="50" height="50" relative="1" as="geometry">
                        <mxPoint x="810" y="830" as="sourcePoint"/>
                        <mxPoint x="860" y="780" as="targetPoint"/>
                    </mxGeometry>
                </mxCell>
                <mxCell id="238" value="" style="curved=1;endArrow=classic;html=1;entryX=0.5;entryY=1;entryDx=0;entryDy=0;exitX=1;exitY=0.5;exitDx=0;exitDy=0;strokeWidth=2;" parent="1" source="19" target="2" edge="1">
                    <mxGeometry width="50" height="50" relative="1" as="geometry">
                        <mxPoint x="950" y="390" as="sourcePoint"/>
                        <mxPoint x="1000" y="340" as="targetPoint"/>
                        <Array as="points">
                            <mxPoint x="870" y="360"/>
                            <mxPoint x="720" y="310"/>
                        </Array>
                    </mxGeometry>
                </mxCell>
                <mxCell id="239" value="" style="curved=1;endArrow=classic;html=1;entryX=0.5;entryY=1;entryDx=0;entryDy=0;exitX=0.943;exitY=-0.033;exitDx=0;exitDy=0;exitPerimeter=0;strokeWidth=2;" parent="1" source="43" edge="1">
                    <mxGeometry width="50" height="50" relative="1" as="geometry">
                        <mxPoint x="980" y="390" as="sourcePoint"/>
                        <mxPoint x="900" y="250" as="targetPoint"/>
                        <Array as="points">
                            <mxPoint x="1620" y="400"/>
                            <mxPoint x="900" y="310"/>
                        </Array>
                    </mxGeometry>
                </mxCell>
                <mxCell id="244" value="" style="rounded=0;whiteSpace=wrap;html=1;strokeColor=default;strokeWidth=2;fillColor=#EAF2FF;" parent="1" vertex="1">
                    <mxGeometry x="460" y="720" width="20" height="40" as="geometry"/>
                </mxCell>
                <mxCell id="245" value="" style="rounded=0;whiteSpace=wrap;html=1;strokeColor=default;strokeWidth=2;fillColor=#EAF2FF;" parent="1" vertex="1">
                    <mxGeometry x="480" y="720" width="20" height="40" as="geometry"/>
                </mxCell>
                <mxCell id="254" value="" style="rounded=0;whiteSpace=wrap;html=1;strokeColor=default;strokeWidth=2;fillColor=#EAF2FF;" parent="1" vertex="1">
                    <mxGeometry x="1100" y="720" width="60" height="40" as="geometry"/>
                </mxCell>
                <mxCell id="232" value="" style="curved=1;endArrow=classic;html=1;exitX=0.393;exitY=1.019;exitDx=0;exitDy=0;exitPerimeter=0;strokeWidth=2;" parent="1" source="43" edge="1">
                    <mxGeometry width="50" height="50" relative="1" as="geometry">
                        <mxPoint x="1050" y="670" as="sourcePoint"/>
                        <mxPoint x="930" y="820" as="targetPoint"/>
                        <Array as="points">
                            <mxPoint x="1150" y="640"/>
                            <mxPoint x="1090" y="840"/>
                        </Array>
                    </mxGeometry>
                </mxCell>
                <mxCell id="255" value="" style="rounded=0;whiteSpace=wrap;html=1;strokeColor=default;strokeWidth=2;fillColor=#EAF2FF;" parent="1" vertex="1">
                    <mxGeometry x="1160" y="720" width="140" height="40" as="geometry"/>
                </mxCell>
                <mxCell id="256" value="属性" style="swimlane;fontStyle=0;childLayout=stackLayout;horizontal=1;startSize=30;horizontalStack=0;resizeParent=1;resizeParentMax=0;resizeLast=0;collapsible=1;marginBottom=0;whiteSpace=wrap;html=1;strokeWidth=2;fillColor=#d5e8d4;strokeColor=#000000;" vertex="1" parent="1">
                    <mxGeometry x="-150" y="370" width="230" height="120" as="geometry"/>
                </mxCell>
                <mxCell id="257" value="属性名1 对象类型1 对象名1 属性值1" style="text;strokeColor=none;fillColor=none;align=left;verticalAlign=middle;spacingLeft=4;spacingRight=4;overflow=hidden;points=[[0,0.5],[1,0.5]];portConstraint=eastwest;rotatable=0;whiteSpace=wrap;html=1;" vertex="1" parent="256">
                    <mxGeometry y="30" width="230" height="30" as="geometry"/>
                </mxCell>
                <mxCell id="258" value="&lt;span style=&quot;color: rgb(0, 0, 0);&quot;&gt;属性名2 对象类型2 对象名2 属性值2&lt;/span&gt;" style="text;strokeColor=none;fillColor=none;align=left;verticalAlign=middle;spacingLeft=4;spacingRight=4;overflow=hidden;points=[[0,0.5],[1,0.5]];portConstraint=eastwest;rotatable=0;whiteSpace=wrap;html=1;" vertex="1" parent="256">
                    <mxGeometry y="60" width="230" height="30" as="geometry"/>
                </mxCell>
                <mxCell id="259" value="..." style="text;strokeColor=none;fillColor=none;align=left;verticalAlign=middle;spacingLeft=4;spacingRight=4;overflow=hidden;points=[[0,0.5],[1,0.5]];portConstraint=eastwest;rotatable=0;whiteSpace=wrap;html=1;" vertex="1" parent="256">
                    <mxGeometry y="90" width="230" height="30" as="geometry"/>
                </mxCell>
                <mxCell id="260" value="" style="curved=1;endArrow=classic;html=1;entryX=1;entryY=0;entryDx=0;entryDy=0;exitX=0;exitY=0.25;exitDx=0;exitDy=0;strokeWidth=2;" edge="1" parent="1" source="18" target="256">
                    <mxGeometry width="50" height="50" relative="1" as="geometry">
                        <mxPoint x="210" y="250" as="sourcePoint"/>
                        <mxPoint x="260" y="200" as="targetPoint"/>
                        <Array as="points">
                            <mxPoint x="190" y="340"/>
                            <mxPoint x="120" y="340"/>
                        </Array>
                    </mxGeometry>
                </mxCell>
                <mxCell id="261" value="" style="curved=1;endArrow=classic;html=1;entryX=1;entryY=0;entryDx=0;entryDy=0;exitX=0;exitY=0.25;exitDx=0;exitDy=0;strokeWidth=2;" edge="1" parent="1" source="42" target="256">
                    <mxGeometry width="50" height="50" relative="1" as="geometry">
                        <mxPoint x="240" y="548" as="sourcePoint"/>
                        <mxPoint x="120" y="560" as="targetPoint"/>
                        <Array as="points">
                            <mxPoint x="440" y="570"/>
                            <mxPoint x="190" y="490"/>
                            <mxPoint x="160" y="310"/>
                        </Array>
                    </mxGeometry>
                </mxCell>
            </root>
        </mxGraphModel>
    </diagram>
</mxfile>